name C:\Users\u0150099\Documents\master_thesis\3dpredictsim\Results\debug\Fal_s1_mtjc2_sc_cspx10_oy2_ATx70_MTc2_MTPm_k1_d01_tau_MTJm_nl_MG_exp5_table_d01_PF_Natali2010_ls146_FDB2_lTs125_Fpsl10_ig21_wAk5e+04_wa2e+03_wpMnD1e+03.mot
datacolumns 130
datarows 4
range 0.52487624 0.55636881
endheader
time	pelvis_tilt	pelvis_list	pelvis_rotation	pelvis_tx	pelvis_ty	pelvis_tz	hip_flexion_l	hip_adduction_l	hip_rotation_l	hip_flexion_r	hip_adduction_r	hip_rotation_r	knee_angle_l	knee_angle_r	ankle_angle_l	ankle_angle_r	subtalar_angle_l	subtalar_angle_r	mtj_angle_l	mtj_angle_r	mtp_angle_l	mtp_angle_r	lumbar_extension	lumbar_bending	lumbar_rotation	arm_flex_l	arm_add_l	arm_rot_l	arm_flex_r	arm_add_r	arm_rot_r	elbow_flex_l	elbow_flex_r	pro_sup_l	pro_sup_r	glut_med1_l/activation	glut_med2_l/activation	glut_med3_l/activation	glut_min1_l/activation	glut_min2_l/activation	glut_min3_l/activation	semimem_l/activation	semiten_l/activation	bifemlh_l/activation	bifemsh_l/activation	sar_l/activation	add_long_l/activation	add_brev_l/activation	add_mag1_l/activation	add_mag2_l/activation	add_mag3_l/activation	tfl_l/activation	pect_l/activation	grac_l/activation	glut_max1_l/activation	glut_max2_l/activation	glut_max3_l/activation	iliacus_l/activation	psoas_l/activation	quad_fem_l/activation	gem_l/activation	peri_l/activation	rect_fem_l/activation	vas_med_l/activation	vas_int_l/activation	vas_lat_l/activation	med_gas_l/activation	lat_gas_l/activation	soleus_l/activation	tib_post_l/activation	flex_dig_l/activation	flex_hal_l/activation	tib_ant_l/activation	per_brev_l/activation	per_long_l/activation	per_tert_l/activation	ext_dig_l/activation	ext_hal_l/activation	FDB_l/activation	ercspn_l/activation	intobl_l/activation	extobl_l/activation	glut_med1_r/activation	glut_med2_r/activation	glut_med3_r/activation	glut_min1_r/activation	glut_min2_r/activation	glut_min3_r/activation	semimem_r/activation	semiten_r/activation	bifemlh_r/activation	bifemsh_r/activation	sar_r/activation	add_long_r/activation	add_brev_r/activation	add_mag1_r/activation	add_mag2_r/activation	add_mag3_r/activation	tfl_r/activation	pect_r/activation	grac_r/activation	glut_max1_r/activation	glut_max2_r/activation	glut_max3_r/activation	iliacus_r/activation	psoas_r/activation	quad_fem_r/activation	gem_r/activation	peri_r/activation	rect_fem_r/activation	vas_med_r/activation	vas_int_r/activation	vas_lat_r/activation	med_gas_r/activation	lat_gas_r/activation	soleus_r/activation	tib_post_r/activation	flex_dig_r/activation	flex_hal_r/activation	tib_ant_r/activation	per_brev_r/activation	per_long_r/activation	per_tert_r/activation	ext_dig_r/activation	ext_hal_r/activation	FDB_r/activation	ercspn_r/activation	intobl_r/activation	extobl_r/activation	
          0.52487624	         -2.92635960	          1.44495228	         -2.67857555	          0.69808539	          0.91290112	          0.00217834	         28.98037934	          2.85630461	         -1.20552153	        -14.36765682	          1.24847495	          8.75559684	        -12.02706985	        -13.03573967	         10.60145078	          7.95338872	          3.01130244	         12.25436113	         -0.18714410	          0.00459240	          0.64837374	         11.64975148	         -3.95138634	         -0.87155665	          2.02247562	         -3.74611192	        -13.50452040	          6.44876181	          3.86925367	        -13.80917848	         19.37801489	         25.49556003	         38.78743914	         86.51662706	         86.51662706	          0.05000007	          0.05000127	          0.05000032	          0.05874738	          0.05003034	          0.05000090	          0.32285663	          0.08110320	          0.34181736	          0.06108280	          0.05000058	          0.08436723	          0.11068113	          0.10984217	          0.12191861	          0.16978001	          0.05000011	          0.05002349	          0.10504084	          0.05000085	          0.05004320	          0.12021255	          0.05000053	          0.05000050	          0.08510140	          0.05874777	          0.05874778	          0.05000008	          0.05000038	          0.05000036	          0.05000029	          0.05621647	          0.05000066	          0.05000033	          0.07491741	          0.05000027	          0.05000036	          0.29301334	          0.05136526	          0.11508446	          0.09792737	          0.47738341	          0.17407682	          0.20290317	          0.06612138	          0.09873468	          0.11723397	          0.26722070	          0.10680250	          0.06902638	          0.42369572	          0.27666980	          0.13502860	          0.05000060	          0.05000008	          0.05000006	          0.06058192	          0.13155789	          0.05000012	          0.05000011	          0.05000018	          0.05000052	          0.05000023	          0.68872415	          0.05000067	          0.05000033	          0.05000239	          0.05000101	          0.05000045	          0.42254123	          0.75999512	          0.05000017	          0.05000120	          0.05874775	          0.49295628	          0.14620823	          0.15408782	          0.12571453	          0.38500585	          0.48187171	          0.33348980	          0.50616460	          0.41756684	          0.56654260	          0.05000000	          0.05000004	          0.20439827	          0.05000003	          0.05000001	          0.10693582	          0.83448537	          0.05000001	          0.05000002	          0.05000001	
          0.53537376	         -2.92911699	          1.59591841	         -2.99700712	          0.71422039	          0.91175688	          0.00190491	         28.71334609	          3.21857415	         -1.21955525	        -14.77764689	          0.84571306	          8.84676860	        -11.86651124	        -13.89025017	         10.17426823	          7.16047031	          3.09375173	         12.79814341	          0.18990771	         -0.89294845	          0.05601192	         13.99758935	         -3.79504892	         -1.08475897	          2.09093042	         -4.37550110	        -13.46601524	          5.74761935	          3.45837201	        -13.77795887	         19.27983456	         24.66885765	         40.63894142	         86.51662706	         86.51662706	          0.06902645	          0.05000010	          0.05874793	          0.05000004	          0.05000006	          0.05000029	          0.31311750	          0.06902653	          0.32548541	          0.06902637	          0.05000029	          0.07180501	          0.15433573	          0.10261941	          0.16073793	          0.19605449	          0.05874707	          0.05000917	          0.09039298	          0.05874845	          0.06442058	          0.13653008	          0.05000004	          0.05000005	          0.13356739	          0.05000035	          0.05000009	          0.05000001	          0.05000010	          0.05000006	          0.05000008	          0.05000013	          0.05000009	          0.05000000	          0.08365032	          0.05000023	          0.05000181	          0.30321850	          0.05000031	          0.13163848	          0.08334540	          0.50803760	          0.14815582	          0.18581703	          0.05874794	          0.09689299	          0.09977711	          0.23950520	          0.09089896	          0.05874797	          0.36060542	          0.23547199	          0.11492202	          0.05000075	          0.05000009	          0.05000008	          0.05156094	          0.11196820	          0.05000002	          0.05000003	          0.05000007	          0.05000026	          0.05000024	          0.58738036	          0.05000012	          0.05000013	          0.05007839	          0.05000163	          0.05000038	          0.35962220	          0.77339617	          0.05000005	          0.05000034	          0.05000006	          0.43403098	          0.13729835	          0.13114453	          0.10699561	          0.35651211	          0.45427744	          0.30910349	          0.46949334	          0.41630163	          0.52305106	          0.05000000	          0.05226816	          0.17396216	          0.05000002	          0.05000001	          0.09101241	          0.71022527	          0.05000000	          0.05000000	          0.05000001	
          0.54587129	         -2.93017648	          1.74617869	         -3.29989982	          0.73066012	          0.91066453	          0.00161575	         28.44693490	          3.58093503	         -1.19244907	        -15.11327709	          0.43777411	          8.92355317	        -12.34229256	        -14.84528304	          9.35945206	          6.17232596	          3.19935658	         13.37523675	          0.57661991	         -1.86235019	         -0.47145187	         16.55341766	         -3.62097004	         -1.30299493	          2.15367750	         -5.02216245	        -13.45016847	          5.28283758	          2.97069119	        -13.73973326	         19.12508839	         23.84171807	         42.49468764	         86.51662706	         86.51662706	          0.05874803	          0.05874792	          0.05000006	          0.05874880	          0.05874804	          0.05002581	          0.26656154	          0.05874805	          0.27926702	          0.05874794	          0.05000051	          0.12658378	          0.13135435	          0.08733882	          0.15382642	          0.20955537	          0.05000017	          0.05001498	          0.07693296	          0.05000050	          0.05482798	          0.16393027	          0.07238442	          0.06677296	          0.45325854	          0.11146856	          0.05874848	          0.06902670	          0.05000023	          0.16804246	          0.05000026	          0.05000007	          0.05000013	          0.05000000	          0.07119454	          0.07637997	          0.08110271	          0.35115465	          0.14124066	          0.12664248	          0.07093479	          0.51672798	          0.12609450	          0.15814771	          0.05000002	          0.08246502	          0.08491968	          0.20384142	          0.07736355	          0.05000006	          0.30690906	          0.20040877	          0.09780943	          0.05000086	          0.05000007	          0.05000005	          0.05000020	          0.09529548	          0.06800579	          0.05000025	          0.05000016	          0.05000042	          0.05000020	          0.53659827	          0.05189455	          0.05000019	          0.05000031	          0.05000019	          0.05000016	          0.30607221	          0.68334541	          0.05000002	          0.05000015	          0.05874832	          0.37117726	          0.12085526	          0.18140106	          0.15915837	          0.31203865	          0.39842921	          0.26601456	          0.41927035	          0.35431266	          0.44516567	          0.05000000	          0.05000063	          0.14805811	          0.05000002	          0.05000001	          0.07746010	          0.60446827	          0.05000000	          0.06902635	          0.05000004	
          0.55636881	         -2.93001933	          1.90417471	         -3.58556152	          0.74738272	          0.90961848	          0.00132745	         28.14682774	          3.89688118	         -1.11923499	        -15.38084225	          0.01822301	          8.97007170	        -13.34811741	        -15.87554782	          8.24720982	          4.99662417	          3.31636817	         13.96524310	          0.83528724	         -2.94867954	         -0.94368700	         19.30315945	         -3.42989030	         -1.53224040	          2.20683942	         -5.68133269	        -13.45786806	          5.03995694	          2.40992917	        -13.70196534	         18.94822862	         23.01183690	         44.36246216	         86.51662706	         86.51662706	          0.05000010	          0.05000004	          0.12439008	          0.05000075	          0.05000012	          0.05000006	          0.22686887	          0.05000011	          0.23768243	          0.05000002	          0.06902416	          0.10773478	          0.25063294	          0.25653288	          0.13092151	          0.25042153	          0.05000033	          0.06902746	          0.06547721	          0.05000031	          0.15812589	          0.20569072	          0.06160622	          0.05874812	          0.38576559	          0.09487025	          0.05000056	          0.05874820	          0.09311270	          0.14302032	          0.07695253	          0.06902636	          0.06902651	          0.06902637	          0.06059326	          0.06500689	          0.06902623	          0.44139078	          0.16038979	          0.13156433	          0.23319042	          0.43978396	          0.10731824	          0.13459853	          0.05000000	          0.07018547	          0.07227461	          0.17348817	          0.06584365	          0.05874793	          0.26120840	          0.17056666	          0.08324500	          0.05000102	          0.05000049	          0.05000149	          0.05000011	          0.08110542	          0.16426723	          0.11889785	          0.05874809	          0.05874711	          0.05874862	          0.45669552	          0.06903335	          0.05874803	          0.05874771	          0.05874781	          0.05874785	          0.26049614	          0.62155194	          0.05874796	          0.05874796	          0.05000036	          0.31590664	          0.14687171	          0.15791857	          0.13552831	          0.26557414	          0.33910066	          0.22640332	          0.35683839	          0.30155331	          0.37887773	          0.05000006	          0.05000001	          0.12601134	          0.05000001	          0.05000000	          0.06592581	          0.51445914	          0.06511153	          0.05874793	          0.05874801	
